<?xml version="1.0" standalone="no"?>
<!DOCTYPE svg PUBLIC "-//W3C//DTD SVG 20010904//EN"
 "http://www.w3.org/TR/2001/REC-SVG-20010904/DTD/svg10.dtd">
<svg version="1.0" xmlns="http://www.w3.org/2000/svg"
 width="192.000000pt" height="192.000000pt" viewBox="0 0 192.000000 192.000000"
 preserveAspectRatio="xMidYMid meet">

<g transform="translate(0.000000,192.000000) scale(0.100000,-0.100000)"
fill="#000000" stroke="none">
<path d="M586 1514 c-96 -35 -156 -120 -164 -234 -9 -134 22 -212 163 -403 98
-133 135 -210 135 -277 0 -44 -31 -86 -57 -76 -8 3 -18 6 -23 6 -16 0 -24 36
-29 135 l-6 100 -96 3 -97 3 5 -88 c12 -223 94 -323 264 -323 170 0 276 148
248 347 -17 117 -40 162 -190 359 -81 108 -102 153 -102 223 0 34 5 48 22 63
28 22 32 22 57 4 16 -12 20 -30 24 -113 l5 -98 97 -3 97 -3 -5 83 c-8 121 -28
182 -75 233 -64 70 -177 94 -273 59z"/>
<path d="M965 1508 c-3 -7 -4 -265 -3 -573 l3 -560 103 -3 102 -3 0 246 0 245
45 0 45 0 2 -242 3 -243 103 -3 102 -3 0 576 0 576 -102 -3 -103 -3 -3 -232
-2 -233 -45 0 -45 0 0 235 0 235 -100 0 c-71 0 -102 -4 -105 -12z"/>
</g>
</svg>
